<?xml version="1.0" encoding="UTF-8" standalone="no"?>
<!-- Created with Inkscape (http://www.inkscape.org/) -->

<svg
   width="264.58334mm"
   height="264.58334mm"
   viewBox="0 0 264.58334 264.58334"
   version="1.1"
   id="svg5"
   inkscape:version="1.2 (1:1.2+202206011327+fc4e4096c5)"
   sodipodi:docname="table_matrix_connector.svg"
   xmlns:inkscape="http://www.inkscape.org/namespaces/inkscape"
   xmlns:sodipodi="http://sodipodi.sourceforge.net/DTD/sodipodi-0.dtd"
   xmlns="http://www.w3.org/2000/svg"
   xmlns:svg="http://www.w3.org/2000/svg">
  <sodipodi:namedview
     id="namedview7"
     pagecolor="#ffffff"
     bordercolor="#666666"
     borderopacity="1.0"
     inkscape:showpageshadow="2"
     inkscape:pageopacity="0.0"
     inkscape:pagecheckerboard="0"
     inkscape:deskcolor="#d1d1d1"
     inkscape:document-units="mm"
     showgrid="false"
     inkscape:zoom="1"
     inkscape:cx="560.5"
     inkscape:cy="506.5"
     inkscape:window-width="2560"
     inkscape:window-height="1361"
     inkscape:window-x="1920"
     inkscape:window-y="0"
     inkscape:window-maximized="1"
     inkscape:current-layer="layer1" />
  <defs
     id="defs2" />
  <g
     inkscape:label="Calque 1"
     inkscape:groupmode="layer"
     id="layer1"
     transform="translate(-35.946125,19.213815)">
    <path
       id="rect61"
       style="fill:#bbbbbb;fill-opacity:1;stroke:#ffffff;stroke-width:0;stroke-dasharray:none"
       d="m 168.23779,-19.213814 c -0.36644,0 -0.66146,1.416052 -0.66146,3.175 V 112.41639 H 39.121126 c -1.758948,0 -3.175,0.29501 -3.175,0.66146 0,0.36645 1.416052,0.66146 3.175,0.66146 H 167.57633 v 128.45521 c 0,1.75895 0.29502,3.175 0.66146,3.175 0.36645,0 0.66146,-1.41605 0.66146,-3.175 V 113.73931 h 128.45521 c 1.75895,0 3.175,-0.29501 3.175,-0.66146 0,-0.36645 -1.41605,-0.66146 -3.175,-0.66146 H 168.89925 V -16.038814 c 0,-1.758948 -0.29501,-3.175 -0.66146,-3.175 z" />
  </g>
</svg>
