<?xml version="1.0" encoding="UTF-8" standalone="no"?>
<!-- Created with Inkscape (http://www.inkscape.org/) -->

<svg
   width="127mm"
   height="190.5mm"
   viewBox="0 0 127 190.5"
   version="1.1"
   id="svg42343"
   inkscape:version="1.2 (1:1.2+202206011327+fc4e4096c5)"
   sodipodi:docname="image_CD_empty_sheet.svg"
   xmlns:inkscape="http://www.inkscape.org/namespaces/inkscape"
   xmlns:sodipodi="http://sodipodi.sourceforge.net/DTD/sodipodi-0.dtd"
   xmlns="http://www.w3.org/2000/svg"
   xmlns:svg="http://www.w3.org/2000/svg">
  <sodipodi:namedview
     id="namedview42345"
     pagecolor="#ffffff"
     bordercolor="#666666"
     borderopacity="1.0"
     inkscape:pageshadow="2"
     inkscape:pageopacity="0.0"
     inkscape:pagecheckerboard="0"
     inkscape:document-units="mm"
     showgrid="false"
     inkscape:zoom="0.71357323"
     inkscape:cx="692.99124"
     inkscape:cy="504.50323"
     inkscape:window-width="2560"
     inkscape:window-height="1361"
     inkscape:window-x="1920"
     inkscape:window-y="0"
     inkscape:window-maximized="1"
     inkscape:current-layer="layer1"
     fit-margin-top="0"
     fit-margin-left="0"
     fit-margin-right="0"
     fit-margin-bottom="0"
     inkscape:showpageshadow="2"
     inkscape:deskcolor="#d1d1d1" />
  <defs
     id="defs42340">
    <style
       type="text/css"
       id="style953"><![CDATA[
    .fil0 {fill:#898989}
    .fil1 {fill:#A1C057}
   ]]></style>
    <style
       type="text/css"
       id="style1109"><![CDATA[
    .str0 {stroke:#4D4D4D;stroke-width:0.12;stroke-miterlimit:22.9256}
    .fil1 {fill:#898989}
    .fil0 {fill:#A1C057}
   ]]></style>
    <style
       type="text/css"
       id="style1265"><![CDATA[
    .fil0 {fill:#898989}
    .fil1 {fill:#A1C057}
   ]]></style>
    <style
       type="text/css"
       id="style1421"><![CDATA[
    .fil0 {fill:#898989}
    .fil1 {fill:#A1C057}
   ]]></style>
  </defs>
  <g
     inkscape:label="Calque 1"
     inkscape:groupmode="layer"
     id="layer1"
     transform="translate(-28.283064,-31.482203)">
    <rect
       style="fill:#e9e9e9;fill-opacity:1;stroke:#b4b4b4;stroke-width:0.292813;stroke-miterlimit:4;stroke-dasharray:none;stroke-opacity:1"
       id="rect42426-3"
       width="126.70718"
       height="190.20718"
       x="28.42947"
       y="31.628611" />
    <g
       id="g836"
       transform="matrix(0.77143753,0,0,0.77143753,39.510193,74.45849)"
       style="clip-rule:evenodd;fill-rule:evenodd;image-rendering:optimizeQuality;shape-rendering:geometricPrecision;text-rendering:geometricPrecision">
      <path
         class="fil0"
         d="m 67.67,105.93 c -10.73,-0.88 -22.32,6.05 -25.66,15.03 -6.6,17.75 21.66,19.92 32.82,2.54 3.42,-5.31 2.51,-10.86 2.51,-17.73 0,-13.44 0,-26.89 0,-40.33 l 48.3,-10.22 0.02,41.37 c -19.19,-1.54 -34.81,20.04 -21.97,27.8 8.22,4.96 22.24,-0.93 27.78,-8.34 4.09,-5.47 3.85,-7.96 3.85,-15.83 0,-5.03 0.39,-55.58 -0.13,-58.01 -1.25,-5.96 -9.29,-2.82 -14.55,-1.73 -10.97,2.29 -22.09,4.51 -33.08,6.85 -4.93,1.05 -11.77,2.02 -16.38,3.43 -2.92,0.9 -3.53,2.72 -3.51,6.24 z"
         id="path1114-6"
         style="font-variation-settings:normal;vector-effect:none;fill:#a1c057;fill-opacity:1;stroke:none;stroke-width:0.12;stroke-linecap:butt;stroke-linejoin:miter;stroke-miterlimit:22.9256;stroke-dasharray:none;stroke-dashoffset:0;stroke-opacity:1;-inkscape-stroke:none;stop-color:#000000" />
      <path
         class="fil1 str0"
         d="M 55.33,102.83 C 44.44,101.49 38.19,99.69 30.61,94.59 25.97,91.47 25.76,90.81 21.85,86.99 19.04,84.24 17.09,81.29 15.05,77.5 5.77,60.19 9.37,40.99 19.58,27.73 24.25,21.66 30.85,16.89 38.12,13.54 c 7.94,-3.65 18.52,-5.1 28.24,-3.43 12.96,2.22 23.76,9.14 30.68,18.5 1.92,2.58 4.94,7.09 5.95,10.67 l 9.6,-1.91 c -1.06,-4.17 -4.74,-10.09 -6.84,-13.1 -0.72,-1.02 -1.32,-1.86 -2.17,-2.86 L 98.7,16.19 C 71.47,-9.23 30.03,-2.89 11,23.23 -8.94,50.59 -0.73,87.69 28.38,104.34 c 2.82,1.61 10.77,5.44 14.43,5.9 1.14,0.15 3.91,-2.56 5.87,-3.86 1.9,-1.25 5.08,-2.42 6.65,-3.55 z m 39.71,-61.9 c 0.86,-0.13 0.78,-0.11 1.64,-0.26 0.23,-0.04 0.57,-0.08 0.75,-0.14 1.11,-0.36 0.45,-0.19 0.78,-0.46 -0.6,-0.39 -0.81,-0.36 -2.35,0.4 z M 82.17,69.22 v 21.77 c 1.28,-0.63 2.22,-1.47 3.25,-2.23 1,-0.73 2.09,-1.72 2.9,-2.45 5.18,-4.7 10.88,-13.54 12.06,-20.89 z m -19.34,1.81 0.01,-8.57 c -3.1,1.48 -5.57,2.26 -8.99,0.32 -5.55,-3.14 -5.13,-11.64 1.19,-13.89 4.02,-1.43 6.84,0.11 8.92,1.88 2.03,-3.33 4.17,-3.66 6.28,-4.73 -9.67,-9.9 -23.58,-5.35 -27.39,4.78 -2.37,6.31 -0.11,12.43 3.49,16 3.97,3.94 8.89,5.91 16.49,4.21 z m 19.34,25.98 v 10.03 c 3.75,-1.13 12.5,-6.99 14.99,-9.55 0.87,-0.89 1.7,-1.54 2.59,-2.47 0.82,-0.85 1.6,-1.46 2.33,-2.4 0.74,-0.96 1.49,-1.72 2.3,-2.75 5.17,-6.6 10.26,-16.88 11.25,-27.65 -2.1,0.19 -4.93,0.96 -6.99,1.39 -4.25,0.89 -2.82,0.56 -3.96,4.64 -5.73,20.49 -21.83,27.19 -22.51,28.76 z m -46.89,-4.9 c 4.56,1.79 4.79,2.99 11.98,4.78 5.3,1.32 9.97,1.4 15.58,1.04 v -22.3 c -9.59,1.42 -9.76,-0.38 -15.89,-2.37 -1.21,2.72 -4.06,6.48 -5.75,9.25 -0.98,1.61 -2.02,3.22 -2.97,4.72 -0.93,1.46 -2.38,3.35 -2.95,4.88 z M 18.14,72.57 38.91,64.02 C 37.45,59.36 36.58,56.29 37.96,51.06 40.78,40.4 51.99,34.12 63,36.69 c 2.63,0.61 3.94,1.62 6.07,2.3 1.44,-3.26 10.85,-16.66 11.66,-18.85 -4.51,-1.76 -4.76,-2.98 -11.98,-4.78 -13.59,-3.38 -30.02,0.39 -39.31,9.06 -2.96,2.76 -5.29,4.85 -7.88,8.73 -5.1,7.67 -7.67,16.68 -6.92,26.18 0.3,3.72 1.53,10.79 3.5,13.24 z"
         id="path1116-0"
         style="font-variation-settings:normal;vector-effect:none;fill:#898989;fill-opacity:1;stroke:none;stroke-width:1;stroke-linecap:butt;stroke-linejoin:miter;stroke-miterlimit:4;stroke-dasharray:none;stroke-dashoffset:0;stroke-opacity:1;-inkscape-stroke:none;stop-color:#000000" />
    </g>
  </g>
</svg>
