<?xml version="1.0" encoding="UTF-8" standalone="no"?>
<!-- Created with Inkscape (http://www.inkscape.org/) -->

<svg
   width="180mm"
   height="180mm"
   viewBox="0 0 180 180"
   version="1.1"
   id="svg5"
   inkscape:version="1.1.2 (1:1.1+202202050950+0a00cf5339)"
   sodipodi:docname="image_GAME_empty.svg"
   xmlns:inkscape="http://www.inkscape.org/namespaces/inkscape"
   xmlns:sodipodi="http://sodipodi.sourceforge.net/DTD/sodipodi-0.dtd"
   xmlns="http://www.w3.org/2000/svg"
   xmlns:svg="http://www.w3.org/2000/svg">
  <sodipodi:namedview
     id="namedview7"
     pagecolor="#ffffff"
     bordercolor="#666666"
     borderopacity="1.0"
     inkscape:pageshadow="2"
     inkscape:pageopacity="0.0"
     inkscape:pagecheckerboard="0"
     inkscape:document-units="mm"
     showgrid="false"
     fit-margin-top="0"
     fit-margin-left="0"
     fit-margin-right="0"
     fit-margin-bottom="0"
     inkscape:zoom="0.77593294"
     inkscape:cx="89.569596"
     inkscape:cy="436.89343"
     inkscape:window-width="2560"
     inkscape:window-height="1361"
     inkscape:window-x="1920"
     inkscape:window-y="0"
     inkscape:window-maximized="1"
     inkscape:current-layer="layer1" />
  <defs
     id="defs2">
    <style
       type="text/css"
       id="style953"><![CDATA[
    .fil0 {fill:#898989}
    .fil1 {fill:#A1C057}
   ]]></style>
    <style
       type="text/css"
       id="style1109"><![CDATA[
    .str0 {stroke:#4D4D4D;stroke-width:0.12;stroke-miterlimit:22.9256}
    .fil1 {fill:#898989}
    .fil0 {fill:#A1C057}
   ]]></style>
    <style
       type="text/css"
       id="style1265"><![CDATA[
    .fil0 {fill:#898989}
    .fil1 {fill:#A1C057}
   ]]></style>
    <style
       type="text/css"
       id="style1421"><![CDATA[
    .fil0 {fill:#898989}
    .fil1 {fill:#A1C057}
   ]]></style>
  </defs>
  <g
     inkscape:label="Calque 1"
     inkscape:groupmode="layer"
     id="layer1"
     transform="translate(-9.48242,-33.074165)">
    <rect
       style="clip-rule:evenodd;fill:none;fill-opacity:1;fill-rule:evenodd;stroke:none;stroke-width:0.339506;stroke-miterlimit:4;stroke-dasharray:none;stroke-opacity:1;image-rendering:optimizeQuality;shape-rendering:geometricPrecision;text-rendering:geometricPrecision"
       id="rect42426-7"
       width="180"
       height="180"
       x="9.48242"
       y="33.074165" />
    <g
       id="g2672"
       transform="matrix(1.0666666,0,0,1.0666666,-9.8945751,-5.4407334)">
      <rect
         style="fill:#808080;fill-opacity:1;stroke-width:0.262045"
         id="rect1479"
         width="50"
         height="50"
         x="77.540947"
         y="45.482723" />
      <rect
         style="fill:#a1c057;fill-opacity:1;stroke-width:0.262045"
         id="rect1479-3"
         width="50"
         height="50"
         x="127.54094"
         y="45.482723" />
      <path
         id="rect1332-5"
         style="fill:#ffffff;stroke-width:0.246402"
         d="m 86.984593,60.58323 5.656854,-5.656854 25.455843,25.455844 -5.65685,5.656854 z m 25.455847,-5.656857 5.65685,5.656854 -25.45584,25.455844 -5.656854,-5.656854 z" />
      <rect
         style="fill:#808080;fill-opacity:1;stroke-width:0.262045"
         id="rect1479-6"
         width="50"
         height="50"
         x="27.540943"
         y="45.482723" />
      <path
         id="rect1332-5-2"
         style="fill:#ffffff;stroke-width:0.246402"
         d="m 36.984593,60.583232 5.656854,-5.656854 25.455847,25.455843 -5.656857,5.656854 z M 62.44044,54.926375 68.097294,60.583229 42.64145,86.039072 36.984596,80.382218 Z" />
      <rect
         style="fill:#808080;fill-opacity:1;stroke-width:0.262045"
         id="rect1479-6-3"
         width="50"
         height="50"
         x="77.540939"
         y="145.48273" />
      <path
         id="rect1332-5-2-6"
         style="fill:#ffffff;stroke-width:0.246402"
         d="m 86.984592,160.58322 5.65686,-5.65685 25.455838,25.45585 -5.65685,5.65685 z m 25.455848,-5.65685 5.65685,5.65685 -25.455838,25.45585 -5.65685,-5.65686 z" />
      <rect
         style="fill:#808080;fill-opacity:1;stroke-width:0.262045"
         id="rect1479-6-3-2"
         width="50"
         height="50"
         x="27.540939"
         y="95.482727" />
      <path
         id="rect1332-5-2-6-6"
         style="fill:#ffffff;stroke-width:0.246402"
         d="m 36.98459,110.58323 5.65686,-5.65685 25.455827,25.45585 -5.65685,5.65685 z m 25.455847,-5.65685 5.65684,5.65685 -25.455827,25.45585 -5.65685,-5.65686 z" />
      <rect
         style="fill:#808080;fill-opacity:1;stroke-width:0.262045"
         id="rect1479-6-2"
         width="50"
         height="50"
         x="127.54095"
         y="95.482727" />
      <path
         id="rect1332-5-2-7"
         style="fill:#ffffff;stroke-width:0.246402"
         d="m 136.9846,110.58323 5.65685,-5.65685 25.45585,25.45584 -5.65686,5.65685 z m 25.45585,-5.65686 5.65685,5.65686 -25.45584,25.45584 -5.65686,-5.65685 z" />
      <path
         id="path1703"
         style="fill:#ffffff;fill-opacity:1;stroke-width:0.279244"
         d="M 152.54094,52.482615 A 18,18 0 0 0 134.541,70.482549 18,18 0 0 0 152.54094,88.482484 18,18 0 0 0 170.54087,70.482549 18,18 0 0 0 152.54094,52.482615 Z m 0,7.000089 a 11,11 0 0 1 10.99984,10.999845 11,11 0 0 1 -10.99984,11.000362 11,11 0 0 1 -10.99985,-11.000362 11,11 0 0 1 10.99985,-10.999845 z" />
      <rect
         style="fill:#808080;fill-opacity:1;stroke-width:0.262045"
         id="rect1479-3-0"
         width="50"
         height="50"
         x="127.54095"
         y="145.48273" />
      <path
         id="path1703-6"
         style="fill:#ffffff;fill-opacity:1;stroke-width:0.279244"
         d="m 152.54095,152.48262 a 18,18 0 0 0 -17.99994,17.99993 18,18 0 0 0 17.99994,17.99993 18,18 0 0 0 17.99993,-17.99993 18,18 0 0 0 -17.99993,-17.99993 z m 0,7.00009 a 11,11 0 0 1 10.99984,10.99984 11,11 0 0 1 -10.99984,11.00036 11,11 0 0 1 -10.99985,-11.00036 11,11 0 0 1 10.99985,-10.99984 z" />
      <rect
         style="fill:#a1c057;fill-opacity:1;stroke-width:0.262045"
         id="rect1479-3-9"
         width="50"
         height="50"
         x="77.540939"
         y="95.482727" />
      <path
         id="path1703-1"
         style="fill:#ffffff;fill-opacity:1;stroke-width:0.279244"
         d="m 102.54094,102.48262 a 18,18 0 0 0 -17.999937,17.99993 18,18 0 0 0 17.999937,17.99994 18,18 0 0 0 17.99993,-17.99994 18,18 0 0 0 -17.99993,-17.99993 z m 0,7.00009 a 11,11 0 0 1 10.99984,10.99984 11,11 0 0 1 -10.99984,11.00037 11,11 0 0 1 -10.999847,-11.00037 11,11 0 0 1 10.999847,-10.99984 z" />
      <rect
         style="fill:#a1c057;fill-opacity:1;stroke-width:0.262045"
         id="rect1479-3-9-0"
         width="50"
         height="50"
         x="27.540932"
         y="145.48273" />
      <path
         id="path1703-1-9"
         style="fill:#ffffff;fill-opacity:1;stroke-width:0.279244"
         d="m 52.540936,152.48262 a 18,18 0 0 0 -17.99994,17.99993 18,18 0 0 0 17.99994,17.99994 18,18 0 0 0 17.99993,-17.99994 18,18 0 0 0 -17.99993,-17.99993 z m 0,7.00009 a 11,11 0 0 1 10.99984,10.99984 11,11 0 0 1 -10.99984,11.00037 11,11 0 0 1 -10.99985,-11.00037 11,11 0 0 1 10.99985,-10.99984 z" />
      <rect
         style="fill:#ffffff;fill-opacity:1;stroke-width:0.0529166"
         id="rect2501"
         width="2"
         height="150"
         x="77.01178"
         y="45.482723" />
      <rect
         style="fill:#ffffff;fill-opacity:1;stroke-width:0.0529166"
         id="rect2501-8"
         width="2"
         height="150"
         x="127.01178"
         y="45.482723" />
      <rect
         style="fill:#ffffff;fill-opacity:1;stroke-width:0.0529166"
         id="rect2501-7"
         width="2"
         height="150"
         x="94.95356"
         y="-177.54094"
         transform="rotate(90)" />
      <rect
         style="fill:#ffffff;fill-opacity:1;stroke-width:0.0529166"
         id="rect2501-8-9"
         width="2"
         height="150"
         x="144.95357"
         y="-177.54094"
         transform="rotate(90)" />
    </g>
  </g>
</svg>
