<?xml version="1.0" encoding="UTF-8" standalone="no"?>
<!-- Created with Inkscape (http://www.inkscape.org/) -->

<svg
   width="190.5mm"
   height="190.5mm"
   viewBox="0 0 190.5 190.5"
   version="1.1"
   id="svg42343"
   inkscape:version="1.1.2 (1:1.1+202202050950+0a00cf5339)"
   sodipodi:docname="image_GAME_empty.svg"
   xmlns:inkscape="http://www.inkscape.org/namespaces/inkscape"
   xmlns:sodipodi="http://sodipodi.sourceforge.net/DTD/sodipodi-0.dtd"
   xmlns="http://www.w3.org/2000/svg"
   xmlns:svg="http://www.w3.org/2000/svg">
  <sodipodi:namedview
     id="namedview42345"
     pagecolor="#ffffff"
     bordercolor="#666666"
     borderopacity="1.0"
     inkscape:pageshadow="2"
     inkscape:pageopacity="0.0"
     inkscape:pagecheckerboard="0"
     inkscape:document-units="mm"
     showgrid="false"
     inkscape:zoom="0.71357323"
     inkscape:cx="757.45555"
     inkscape:cy="460.3592"
     inkscape:window-width="2560"
     inkscape:window-height="1353"
     inkscape:window-x="1920"
     inkscape:window-y="0"
     inkscape:window-maximized="1"
     inkscape:current-layer="layer1"
     fit-margin-top="0"
     fit-margin-left="0"
     fit-margin-right="0"
     fit-margin-bottom="0" />
  <defs
     id="defs42340">
    <style
       type="text/css"
       id="style953"><![CDATA[
    .fil0 {fill:#898989}
    .fil1 {fill:#A1C057}
   ]]></style>
    <style
       type="text/css"
       id="style1109"><![CDATA[
    .str0 {stroke:#4D4D4D;stroke-width:0.12;stroke-miterlimit:22.9256}
    .fil1 {fill:#898989}
    .fil0 {fill:#A1C057}
   ]]></style>
    <style
       type="text/css"
       id="style1265"><![CDATA[
    .fil0 {fill:#898989}
    .fil1 {fill:#A1C057}
   ]]></style>
    <style
       type="text/css"
       id="style1421"><![CDATA[
    .fil0 {fill:#898989}
    .fil1 {fill:#A1C057}
   ]]></style>
  </defs>
  <g
     inkscape:label="Calque 1"
     inkscape:groupmode="layer"
     id="layer1"
     transform="translate(-9.5005759,-43.152914)">
    <g
       id="g1448"
       transform="matrix(0.90714283,0,0,0.90714283,9.3701026,9.8499149)">
      <rect
         style="fill:#e9e9e9;fill-opacity:1;stroke:#b4b4b4;stroke-width:0.395346;stroke-miterlimit:4;stroke-dasharray:none;stroke-opacity:1"
         id="rect42426"
         width="209.60466"
         height="209.60466"
         x="0.34150186"
         y="36.909641" />
      <g
         style="clip-rule:evenodd;fill-rule:evenodd;image-rendering:optimizeQuality;shape-rendering:geometricPrecision;text-rendering:geometricPrecision"
         id="g1440"
         transform="matrix(0.8275114,0,0,0.8275114,17.812416,54.380556)">
        <g
           id="Plan_x0020_1"
           inkscape:label="Plan 1"
           inkscape:groupmode="layer">
          <metadata
             id="CorelCorpID_0Corel-Layer" />
          <path
             class="fil0"
             d="m 1.66,0 h 32.96 1.67 1.66 13.99 1.66 1.66 13.99 1.66 1.66 13.99 1.66 1.67 13.98 1.67 1.66 13.98 1.67 1.66 13.99 1.66 1.66 13.99 1.66 1.67 13.98 1.66 1.67 34.62 v 34.62 1.67 1.66 13.99 1.66 1.66 13.99 1.66 1.66 13.99 1.66 1.67 13.98 1.67 1.66 13.98 1.67 1.66 13.99 1.66 1.66 13.99 1.66 1.67 13.98 3.33 34.62 h -34.62 -3.33 -13.98 -3.33 -13.99 -3.32 -13.99 -3.33 H 107.2 103.87 89.89 86.56 72.57 69.25 55.26 51.94 37.95 34.62 0 v -37.95 0 -13.98 0 -20.64 0 -13.99 0 -20.64 0 -13.98 0 -20.64 0 -13.99 0 V 37.95 34.62 0 Z m 154.15,207.75 v -31.3 h -13.99 v 31.3 z m 0,-34.63 h 1.66 1.67 13.98 V 159.14 155.81 141.82 138.5 124.51 121.18 107.2 103.87 89.89 86.56 72.57 69.25 55.26 51.94 37.95 H 159.14 155.81 141.82 138.5 124.51 121.18 107.2 103.87 89.89 86.56 72.57 69.25 55.26 51.94 37.95 v 13.99 1.66 1.66 13.99 1.66 1.66 13.99 1.66 1.67 13.98 1.67 1.66 13.98 1.67 1.66 13.99 1.66 1.66 13.99 1.66 1.67 13.98 h 13.99 1.66 1.66 13.99 1.66 1.66 13.99 1.66 1.67 13.98 1.67 1.66 13.98 1.67 1.66 13.99 1.66 1.66 z m 17.31,3.33 h -13.98 v 31.3 h 13.98 z m -65.92,0 v 31.3 h 13.98 v -31.3 z m 31.3,0 h -13.99 v 31.3 h 13.99 z m -65.93,0 v 31.3 h 13.99 v -31.3 z m 31.3,0 H 89.89 v 31.3 h 13.98 z m -65.92,0 v 31.3 h 13.99 v -31.3 z m 31.3,0 H 55.26 v 31.3 H 69.25 Z M 34.62,141.82 H 3.33 v 13.99 h 31.29 z m 0,31.3 V 159.14 H 3.33 v 13.98 z m 0,-65.92 H 3.33 v 13.98 h 31.29 z m 0,31.3 V 124.51 H 3.33 v 13.99 z m 0,-65.93 H 3.33 v 13.99 h 31.29 z m 0,31.3 V 89.89 H 3.33 v 13.98 z m 0,-65.92 H 3.33 v 13.99 h 31.29 z m 0,31.3 V 55.26 H 3.33 v 13.99 z m 173.13,72.57 h -31.3 v 13.99 h 31.3 z m 0,31.3 v -13.98 h -31.3 v 13.98 z m 0,-65.92 h -31.3 v 13.98 h 31.3 z m 0,31.3 v -13.99 h -31.3 v 13.99 z m 0,-65.93 h -31.3 v 13.99 h 31.3 z m 0,31.3 V 89.89 h -31.3 v 13.98 z m 0,-65.92 h -31.3 v 13.99 h 31.3 z m 0,31.3 V 55.26 h -31.3 V 69.25 Z M 141.82,3.33 v 31.29 h 13.99 V 3.33 Z m 31.3,0 h -13.98 v 31.29 h 13.98 z m -65.92,0 v 31.29 h 13.98 V 3.33 Z m 31.3,0 h -13.99 v 31.29 h 13.99 z m -65.93,0 V 34.62 H 86.56 V 3.33 Z m 31.3,0 H 89.89 v 31.29 h 13.98 z m -65.92,0 V 34.62 H 51.94 V 3.33 Z m 31.3,0 H 55.26 v 31.29 h 13.99 z"
             id="path1426" />
          <path
             class="fil1"
             d="m 139.93,130.21 c 1.24,-1.5 0.46,-6.29 0.31,-8.47 -0.22,-3.06 -0.4,-6.06 -0.63,-9.12 -0.22,-2.92 -0.43,-5.97 -0.61,-8.94 -0.21,-3.39 -0.7,-5.55 -3.19,-6.53 -0.29,-0.21 0.03,-0.12 -0.58,-0.29 -0.44,-0.12 -0.28,-0.05 -0.71,-0.04 -0.52,-0.41 -15.34,0.8 -17.54,0.91 0.39,-4.11 -1.91,-5.02 -4.09,-6.6 -6.1,-4.45 -12.26,-8.85 -18.39,-13.26 -1.37,-1.01 -3.07,-1.92 -5.35,-1.2 -1.86,0.6 -2.59,2.05 -3.62,3.3 L 73.69,96.44 c -0.51,0.59 -2.6,3.47 -2.88,4.21 -0.77,2 -0.19,4.16 0.81,5.43 0.54,0.68 3.23,2.47 4.07,3.05 5.33,3.71 10.6,7.62 15.88,11.42 1.6,1.27 3.93,3.24 6.86,2.19 1.76,-0.64 4.26,-3.93 4.64,-5 0.39,-0.22 0.06,-0.25 0.39,-0.11 0.32,2.85 0.62,11.35 0.98,13 1.12,5.07 6.38,3.99 9.25,3.8 4.28,-0.27 8.51,-0.54 12.77,-0.86 2.51,-0.2 10.75,-0.22 11.87,-1.64 0.49,-0.35 0.39,-0.29 0.77,-0.61 0.21,-0.17 0.37,-0.3 0.69,-0.46 0.07,-0.35 -0.14,-0.21 0.14,-0.65 z m -89.6,7.26 8.79,-11.59 c 1.65,-2.18 4.78,-2.61 6.96,-0.95 l 23.18,17.58 c 2.17,1.65 2.6,4.79 0.95,6.96 l -8.79,11.59 c -1.66,2.18 -4.79,2.61 -6.96,0.96 L 51.28,144.43 c -2.18,-1.65 -2.61,-4.78 -0.95,-6.96 z m 66.7,-77.7 8.79,-11.59 c 1.65,-2.18 4.78,-2.61 6.96,-0.95 l 23.18,17.58 c 2.17,1.65 2.6,4.79 0.95,6.96 l -8.79,11.59 c -1.65,2.18 -4.78,2.61 -6.96,0.95 L 117.98,66.73 c -2.17,-1.65 -2.6,-4.79 -0.95,-6.96 z m -10.51,55.27 c -0.3,-2.95 -0.42,-6.03 -0.63,-8.99 -0.32,-4.49 0.12,-4.35 4.46,-4.64 5.92,-0.39 11.83,-0.83 17.69,-1.21 3.92,-0.26 7.15,-1.2 7.6,1.39 l 1.8,26.88 -1.69,1.38 c -1.33,-0.24 -18.88,1.17 -21.76,1.37 -6.5,0.45 -6.31,0.85 -6.66,-4.25 -0.25,-3.55 -0.58,-7.09 -0.73,-10.64 z M 74.38,104.31 c -1.63,-1.41 -0.31,-2.95 0.5,-4.12 3.96,-5.7 8.49,-11.71 12.63,-17.44 0.77,-1.07 1.48,-2.92 3.01,-3.11 1.22,-0.15 2.27,1.05 3.8,1.98 l 17.57,12.69 c 0.83,0.65 3.11,2.1 1.46,3.7 l -5.09,0.32 c -0.1,-4.33 -4.47,-6.43 -7.84,-3.86 -1.16,0.88 -2.07,2.95 -1.45,5.05 0.75,2.53 2.31,2.65 3.57,3.36 0.02,1.87 0.17,3.74 0.31,5.59 0.16,2.27 0.66,3.38 -0.5,4.92 -1.47,1.96 -4,6.33 -5.57,6.41 -0.98,0.04 -1.56,-0.49 -2.13,-0.95 -4.55,-3.26 -16.07,-10.9 -20.27,-14.54 z m 10.08,1.74 0.5,-0.14 c 3.44,-0.59 4.98,-5.29 2.31,-7.96 -2.78,-2.77 -7.32,-1.11 -7.92,2.37 -0.09,0.27 -0.17,0.44 -0.18,0.78 0,0.29 -0.02,0.11 0.02,0.39 0.07,0.5 0.12,0.41 0.17,0.52 -0.06,1.13 0.93,2.49 1.5,2.94 0.97,0.77 2.04,1.08 3.6,1.1 z m -1.34,-3.26 c -0.18,-0.49 0.11,-0.3 -0.5,-0.43 0.11,-0.36 0.21,-0.3 -0.12,-0.3 -0.29,-4.23 4.38,-1.73 2.63,0.25 -0.52,0.58 -1.27,0.47 -2.01,0.48 z m 11.47,5.37 c 2.22,-1.07 3.04,2.08 1.47,2.73 -2.05,0.84 -3.14,-1.93 -1.47,-2.73 z m -0.75,-3.14 c -5.99,1.99 -2.99,10.99 3.12,8.92 5.58,-1.88 3,-10.95 -3.12,-8.92 z m 22.6,18.83 c -0.9,1.76 -3.64,0.59 -2.74,-1.48 0.7,-1.61 3.82,-0.62 2.74,1.48 z m 3.15,0.79 c 2.11,-5.55 -6.84,-9.11 -8.97,-3.18 -2.12,5.9 6.65,9.31 8.97,3.18 z m 7.94,-17.78 c 2.07,-0.82 2.87,2.07 1.12,2.76 -0.98,0.4 -1.72,-0.13 -1.99,-0.82 -0.56,-1.44 0.48,-1.78 0.87,-1.94 z m -0.5,-3.26 c -6.19,1.53 -3.93,10.51 2.08,9.25 2.3,-0.48 4.28,-2.68 3.61,-5.74 -0.49,-2.21 -2.96,-4.19 -5.69,-3.51 z M 91.55,88.57 c 2.23,-0.84 2.85,2.15 1.18,2.79 -2.1,0.81 -2.97,-2.12 -1.18,-2.79 z m -0.58,-3.2 c -6.05,1.66 -3.84,10.66 2.41,9.17 5.93,-1.42 3.71,-10.84 -2.41,-9.17 z m 11.98,11.36 c 1.97,-0.99 2.89,2.16 1.17,2.83 -1.7,0.66 -3.25,-1.79 -1.17,-2.83 z"
             id="path1428" />
        </g>
      </g>
    </g>
  </g>
</svg>
